<svg width="191" height="40" viewBox="0 0 191 40" fill="none" xmlns="http://www.w3.org/2000/svg">
<path d="M14.5222 10.1436C20.5973 10.1436 24.6635 14.4761 24.6635 20.2133C24.6635 26.0892 20.5973 30.53 14.5222 30.53C8.44712 30.53 4.38086 26.0892 4.38086 20.2133C4.38086 14.4761 8.44712 10.1436 14.5222 10.1436ZM14.5222 25.26C17.0041 25.26 18.7991 23.2189 18.7991 20.2133C18.7991 17.343 17.0041 15.4136 14.5222 15.4136C12.0403 15.4136 10.2453 17.3464 10.2453 20.2133C10.2421 23.2189 12.0371 25.26 14.5222 25.26Z" fill="#FAFAFA" fill-opacity="0.87"/>
<path d="M28.7339 23.5231C28.7339 23.5231 30.9242 25.5641 33.4612 25.5641C34.3068 25.5641 35.0196 25.2866 35.0196 24.4607C35.0196 23.4114 33.7787 23.1914 31.8768 22.3655C29.4727 21.3433 26.832 19.7999 26.832 16.2695C26.832 12.4887 29.8679 10.1465 34.093 10.1465C38.0523 10.1465 40.3527 12.2417 40.3527 12.2417L38.5318 16.8483C38.5318 16.8483 36.4712 15.1119 34.1481 15.1119C33.2765 15.1119 32.5377 15.332 32.5377 16.1883C32.5377 17.153 33.6458 17.373 35.1784 18.0093C37.7413 19.0586 40.7253 20.4937 40.7253 24.2982C40.7253 27.7473 38.2175 30.533 33.6232 30.533C29.1065 30.533 26.4141 27.8556 26.4141 27.8556L28.7339 23.5231Z" fill="#FAFAFA" fill-opacity="0.87"/>
<path d="M44.9332 23.5231C44.9332 23.5231 47.1234 25.5641 49.6604 25.5641C50.506 25.5641 51.2188 25.2866 51.2188 24.4607C51.2188 23.4114 49.9779 23.1914 48.076 22.3655C45.6719 21.3433 43.0312 19.7999 43.0312 16.2695C43.0312 12.4887 46.0672 10.1465 50.2922 10.1465C54.2548 10.1465 56.552 12.2417 56.552 12.2417L54.7311 16.8483C54.7311 16.8483 52.6704 15.1119 50.3473 15.1119C49.4757 15.1119 48.737 15.332 48.737 16.1883C48.737 17.153 49.8451 17.373 51.3776 18.0093C53.9405 19.0586 56.9246 20.4937 56.9246 24.2982C56.9246 27.7473 54.4168 30.533 49.8224 30.533C45.3058 30.533 42.6133 27.8556 42.6133 27.8556L44.9332 23.5231Z" fill="#FAFAFA" fill-opacity="0.87"/>
<path d="M109.812 10.1543H118.185C122.251 10.1543 125.024 13.0787 125.024 17.2149C125.024 21.4628 122.251 24.2485 118.185 24.2485H115.518V29.8774H109.816V10.1543H109.812ZM117.287 19.5335C118.635 19.5335 119.322 18.5418 119.322 17.1879C119.322 15.8069 118.661 14.8422 117.368 14.8422H115.518V19.5335H117.287Z" fill="#FAFAFA" fill-opacity="0.87"/>
<path d="M137.085 9.82227C143.16 9.82227 147.226 14.1548 147.226 19.892C147.226 25.7679 143.16 30.2088 137.085 30.2088C131.01 30.2088 126.943 25.7679 126.943 19.892C126.943 14.1548 131.01 9.82227 137.085 9.82227ZM137.085 24.9387C139.567 24.9387 141.362 22.8976 141.362 19.892C141.362 17.0217 139.567 15.0924 137.085 15.0924C134.603 15.0924 132.808 17.0251 132.808 19.892C132.808 22.8976 134.603 24.9387 137.085 24.9387Z" fill="#FAFAFA" fill-opacity="0.87"/>
<path d="M150.355 10.1543H158.569C162.716 10.1543 165.542 12.4999 165.542 16.6361C165.542 18.8972 164.433 21.0228 162.664 22.1533V22.2075C162.716 22.3192 163.086 22.8133 163.484 23.558L166.786 29.874H160.581L157.649 23.6934H156.064V29.874H150.362V10.1543H150.355ZM157.749 19.0901C159.016 19.0901 159.755 18.2913 159.755 16.9949C159.755 15.7527 159.253 14.9539 157.535 14.9539H156.058V19.0901H157.749Z" fill="#FAFAFA" fill-opacity="0.87"/>
<path d="M173.256 15.2281H167.631V10.1543H184.557V15.2315H178.932V29.8808H173.256V15.2281Z" fill="#FAFAFA" fill-opacity="0.87"/>
<path fill-rule="evenodd" clip-rule="evenodd" d="M100.74 19.716L98.6824 22.2782C97.6521 28.9463 92.6689 34.2299 86.3216 35.4247L83.587 37.8245L80.8524 35.4247C74.5116 34.2299 69.5317 28.9496 68.4981 22.285L66.4277 19.7092L68.5014 17.13C69.5414 10.4349 74.5667 5.13775 80.9496 3.97677L83.5903 1.6582L86.2309 3.97677C92.6235 5.14114 97.6521 10.4518 98.6824 17.1571L100.74 19.716ZM91.8524 20.552L91.9139 22.0989C92.5522 22.0582 93.7446 22.2986 93.7284 22.3358C93.696 22.5727 93.4108 23.1854 93.21 23.5543C93.1848 23.6004 93.1593 23.6477 93.1331 23.6963C92.8895 24.1485 92.5836 24.7164 91.8815 25.4498C91.483 25.8661 90.5499 26.5701 90.5531 26.5668C87.6047 28.1745 86.2147 27.5822 85.7773 26.6446L85.1746 17.1503H91.4506V17.1469C91.4603 17.1503 91.4701 17.1537 91.4798 17.1537C92.0047 17.2688 92.6105 17.6445 92.6105 17.6445L91.3469 14.8114H85.0224L84.8182 11.5722C85.7157 11.1085 86.3346 10.1404 86.3346 9.02347C86.3346 7.45632 85.1131 6.18026 83.6129 6.18026C82.1128 6.18026 80.8913 7.45632 80.8913 9.02347C80.8913 10.1743 81.549 11.166 82.4886 11.6128L82.2942 14.8114H75.9859L74.5505 17.6411C74.5505 17.6411 75.1823 17.2654 75.7072 17.1503H75.7105H82.1517L81.6138 26.0015L81.5393 26.428C81.2153 27.4773 79.8448 28.2896 76.6792 26.5634C76.6825 26.5668 75.7494 25.8627 75.3508 25.4464C74.6488 24.713 74.3429 24.1451 74.0993 23.693L74.0993 23.6929C74.0731 23.6443 74.0476 23.597 74.0224 23.5509C73.8215 23.182 73.5364 22.5693 73.504 22.3324C73.4878 22.2952 74.6801 22.0549 75.3184 22.0955L75.38 20.5486C74.3432 20.5148 72.5935 20.8465 71.061 21.4117C71.0961 21.5093 71.147 21.6535 71.2071 21.8237L71.2072 21.824C71.4244 22.4393 71.7613 23.3938 71.9034 23.7066C72.1756 24.343 72.9208 25.8797 74.3659 27.3588C75.4513 28.4724 76.6857 29.3592 78.0303 29.9955C79.2454 30.5709 80.5543 30.9399 81.9378 31.099C82.9293 31.4442 83.506 32.2566 83.6032 32.4021V32.4258C83.6032 32.4258 83.6065 32.4224 83.6097 32.4123C83.6162 32.419 83.6162 32.4258 83.6162 32.4258L83.6194 32.3987C83.7231 32.243 84.2998 31.4408 85.2816 31.0956C86.6651 30.9365 87.974 30.5642 89.1891 29.9922C90.5369 29.3558 91.7681 28.469 92.8536 27.3554C94.2986 25.8729 95.0438 24.3396 95.316 23.7032C95.4754 23.3586 95.8688 22.2349 96.0757 21.6442L96.0767 21.6414C96.1091 21.5488 96.1369 21.4694 96.1584 21.4084C94.6421 20.8499 92.8892 20.5182 91.8524 20.552ZM83.6162 7.87603C84.2221 7.87603 84.7178 8.39391 84.7178 9.02686C84.7178 9.65981 84.2221 10.1777 83.6162 10.1777C83.0103 10.1777 82.5146 9.65981 82.5146 9.02686C82.5146 8.39391 83.0103 7.87603 83.6162 7.87603Z" fill="#EDDA54"/>
</svg>
