<svg width="216" height="21" viewBox="0 0 216 21" fill="none" xmlns="http://www.w3.org/2000/svg">
<path d="M8.298 17.7169C7.242 17.7169 6.276 17.5429 5.4 17.1949C4.524 16.8349 3.768 16.3309 3.132 15.6829C2.508 15.0349 2.016 14.2729 1.656 13.3969C1.308 12.5209 1.134 11.5549 1.134 10.4989C1.134 9.45486 1.308 8.49487 1.656 7.61887C2.016 6.74287 2.508 5.98086 3.132 5.33286C3.768 4.68486 4.524 4.18686 5.4 3.83886C6.276 3.47886 7.242 3.29887 8.298 3.29887C9.342 3.29887 10.302 3.47886 11.178 3.83886C12.054 4.18686 12.81 4.68486 13.446 5.33286C14.082 5.98086 14.574 6.74287 14.922 7.61887C15.282 8.49487 15.462 9.45486 15.462 10.4989C15.462 11.5549 15.282 12.5209 14.922 13.3969C14.574 14.2729 14.082 15.0349 13.446 15.6829C12.81 16.3309 12.054 16.8349 11.178 17.1949C10.302 17.5429 9.342 17.7169 8.298 17.7169ZM8.298 16.1689C9.102 16.1689 9.84 16.0249 10.512 15.7369C11.184 15.4489 11.766 15.0529 12.258 14.5489C12.762 14.0329 13.146 13.4329 13.41 12.7489C13.686 12.0529 13.824 11.3029 13.824 10.4989C13.824 9.69486 13.686 8.95086 13.41 8.26686C13.146 7.58286 12.762 6.98286 12.258 6.46687C11.766 5.95086 11.184 5.55486 10.512 5.27886C9.84 4.99086 9.102 4.84686 8.298 4.84686C7.494 4.84686 6.756 4.99086 6.084 5.27886C5.412 5.55486 4.83 5.95086 4.338 6.46687C3.846 6.98286 3.462 7.58286 3.186 8.26686C2.91 8.95086 2.772 9.69486 2.772 10.4989C2.772 11.3029 2.91 12.0529 3.186 12.7489C3.462 13.4329 3.846 14.0329 4.338 14.5489C4.83 15.0529 5.412 15.4489 6.084 15.7369C6.756 16.0249 7.494 16.1689 8.298 16.1689ZM19.2222 17.5369C18.9822 17.5369 18.7782 17.4589 18.6102 17.3029C18.4542 17.1349 18.3762 16.9309 18.3762 16.6909V4.32486C18.3762 4.08486 18.4542 3.88687 18.6102 3.73086C18.7782 3.56286 18.9822 3.47886 19.2222 3.47886H22.8222C23.7222 3.47886 24.5142 3.67686 25.1982 4.07286C25.8942 4.46886 26.4342 5.01486 26.8182 5.71087C27.2022 6.39486 27.3942 7.19286 27.3942 8.10486C27.3942 8.98086 27.2022 9.76086 26.8182 10.4449C26.4342 11.1289 25.8942 11.6629 25.1982 12.0469C24.5142 12.4309 23.7222 12.6229 22.8222 12.6229H20.0682V16.6909C20.0682 16.9309 19.9902 17.1349 19.8342 17.3029C19.6782 17.4589 19.4742 17.5369 19.2222 17.5369ZM20.0682 11.0389H22.8222C23.3982 11.0389 23.9082 10.9129 24.3522 10.6609C24.7962 10.4089 25.1442 10.0609 25.3962 9.61686C25.6482 9.17286 25.7742 8.66886 25.7742 8.10486C25.7742 7.50486 25.6482 6.97686 25.3962 6.52086C25.1442 6.06486 24.7962 5.71086 24.3522 5.45887C23.9082 5.19486 23.3982 5.06286 22.8222 5.06286H20.0682V11.0389ZM30.3667 17.5369C30.1267 17.5369 29.9227 17.4589 29.7547 17.3029C29.5987 17.1349 29.5207 16.9309 29.5207 16.6909V4.32486C29.5207 4.07286 29.5987 3.86886 29.7547 3.71287C29.9227 3.55686 30.1267 3.47886 30.3667 3.47886H38.6287C38.8687 3.47886 39.0667 3.55686 39.2227 3.71287C39.3787 3.85686 39.4567 4.04886 39.4567 4.28886C39.4567 4.50486 39.3787 4.69086 39.2227 4.84686C39.0667 4.99086 38.8687 5.06286 38.6287 5.06286H31.2127V9.67087H36.5587C36.8107 9.67087 37.0087 9.74887 37.1527 9.90486C37.3087 10.0489 37.3867 10.2349 37.3867 10.4629C37.3867 10.6909 37.3087 10.8829 37.1527 11.0389C37.0087 11.1829 36.8107 11.2549 36.5587 11.2549H31.2127V15.9529H38.6287C38.8687 15.9529 39.0667 16.0309 39.2227 16.1869C39.3787 16.3309 39.4567 16.5109 39.4567 16.7269C39.4567 16.9669 39.3787 17.1649 39.2227 17.3209C39.0667 17.4649 38.8687 17.5369 38.6287 17.5369H30.3667ZM42.8995 17.5369C42.6595 17.5369 42.4615 17.4589 42.3055 17.3029C42.1495 17.1349 42.0715 16.9309 42.0715 16.6909V4.32486C42.0715 4.07286 42.1495 3.86886 42.3055 3.71287C42.4615 3.55686 42.6595 3.47886 42.8995 3.47886C43.1635 3.47886 43.3855 3.58086 43.5655 3.78486L51.7015 14.5669V4.32486C51.7015 4.07286 51.7795 3.86886 51.9355 3.71287C52.1035 3.55686 52.3075 3.47886 52.5475 3.47886C52.7875 3.47886 52.9855 3.55686 53.1415 3.71287C53.2975 3.86886 53.3755 4.07286 53.3755 4.32486V16.6909C53.3755 16.9309 53.2975 17.1349 53.1415 17.3029C52.9855 17.4589 52.7875 17.5369 52.5475 17.5369C52.4275 17.5369 52.3075 17.5129 52.1875 17.4649C52.0675 17.4169 51.9715 17.3449 51.8995 17.2489L43.7455 6.46687V16.6909C43.7455 16.9309 43.6675 17.1349 43.5115 17.3029C43.3555 17.4589 43.1515 17.5369 42.8995 17.5369ZM66.6612 17.7169C65.8932 17.7169 65.1672 17.6029 64.4832 17.3749C63.8112 17.1349 63.2232 16.8049 62.7192 16.3849C62.2152 15.9649 61.8432 15.4729 61.6032 14.9089C61.4832 14.6809 61.4772 14.4709 61.5852 14.2789C61.7052 14.0869 61.8972 13.9609 62.1612 13.9009C62.3652 13.8529 62.5632 13.8829 62.7552 13.9909C62.9472 14.0869 63.0912 14.2369 63.1872 14.4409C63.3432 14.7649 63.5892 15.0589 63.9252 15.3229C64.2612 15.5749 64.6632 15.7789 65.1312 15.9349C65.6112 16.0909 66.1212 16.1689 66.6612 16.1689C67.2612 16.1689 67.8012 16.0729 68.2812 15.8809C68.7732 15.6889 69.1632 15.4129 69.4512 15.0529C69.7512 14.6809 69.9012 14.2309 69.9012 13.7029C69.9012 13.0309 69.6432 12.4369 69.1272 11.9209C68.6112 11.4049 67.7832 11.0809 66.6432 10.9489C65.1912 10.7929 64.0512 10.3549 63.2232 9.63487C62.3952 8.91487 61.9812 8.02687 61.9812 6.97087C61.9812 6.20286 62.1912 5.54886 62.6112 5.00886C63.0312 4.45686 63.6072 4.03686 64.3392 3.74886C65.0712 3.46086 65.8992 3.31686 66.8232 3.31686C67.5192 3.31686 68.1372 3.41886 68.6772 3.62286C69.2292 3.82686 69.7032 4.10886 70.0992 4.46887C70.5072 4.81686 70.8552 5.21886 71.1432 5.67486C71.2872 5.91486 71.3412 6.14286 71.3052 6.35886C71.2812 6.56286 71.1732 6.72486 70.9812 6.84486C70.7652 6.96486 70.5372 6.98886 70.2972 6.91686C70.0692 6.84486 69.8952 6.70686 69.7752 6.50286C69.5952 6.17886 69.3672 5.89686 69.0912 5.65686C68.8152 5.41686 68.4852 5.22486 68.1012 5.08086C67.7292 4.93686 67.2852 4.86486 66.7692 4.86486C65.8572 4.85286 65.1072 5.03286 64.5192 5.40486C63.9312 5.76486 63.6372 6.31086 63.6372 7.04287C63.6372 7.42687 63.7332 7.78687 63.9252 8.12287C64.1292 8.44686 64.4772 8.73486 64.9692 8.98686C65.4732 9.22686 66.1752 9.40087 67.0752 9.50887C68.5272 9.67687 69.6372 10.1209 70.4052 10.8409C71.1732 11.5489 71.5572 12.4849 71.5572 13.6489C71.5572 14.3209 71.4252 14.9089 71.1612 15.4129C70.9092 15.9169 70.5552 16.3429 70.0992 16.6909C69.6432 17.0269 69.1152 17.2849 68.5152 17.4649C67.9272 17.6329 67.3092 17.7169 66.6612 17.7169ZM80.9484 17.7169C79.8924 17.7169 78.9264 17.5429 78.0504 17.1949C77.1744 16.8349 76.4184 16.3309 75.7824 15.6829C75.1584 15.0349 74.6664 14.2729 74.3064 13.3969C73.9584 12.5209 73.7844 11.5549 73.7844 10.4989C73.7844 9.45486 73.9584 8.49487 74.3064 7.61887C74.6664 6.74287 75.1584 5.98086 75.7824 5.33286C76.4184 4.68486 77.1744 4.18686 78.0504 3.83886C78.9264 3.47886 79.8924 3.29887 80.9484 3.29887C81.9924 3.29887 82.9524 3.47886 83.8284 3.83886C84.7044 4.18686 85.4604 4.68486 86.0964 5.33286C86.7324 5.98086 87.2244 6.74287 87.5724 7.61887C87.9324 8.49487 88.1124 9.45486 88.1124 10.4989C88.1124 11.5549 87.9324 12.5209 87.5724 13.3969C87.2244 14.2729 86.7324 15.0349 86.0964 15.6829C85.4604 16.3309 84.7044 16.8349 83.8284 17.1949C82.9524 17.5429 81.9924 17.7169 80.9484 17.7169ZM80.9484 16.1689C81.7524 16.1689 82.4904 16.0249 83.1624 15.7369C83.8344 15.4489 84.4164 15.0529 84.9084 14.5489C85.4124 14.0329 85.7964 13.4329 86.0604 12.7489C86.3364 12.0529 86.4744 11.3029 86.4744 10.4989C86.4744 9.69486 86.3364 8.95086 86.0604 8.26686C85.7964 7.58286 85.4124 6.98286 84.9084 6.46687C84.4164 5.95086 83.8344 5.55486 83.1624 5.27886C82.4904 4.99086 81.7524 4.84686 80.9484 4.84686C80.1444 4.84686 79.4064 4.99086 78.7344 5.27886C78.0624 5.55486 77.4804 5.95086 76.9884 6.46687C76.4964 6.98286 76.1124 7.58286 75.8364 8.26686C75.5604 8.95086 75.4224 9.69486 75.4224 10.4989C75.4224 11.3029 75.5604 12.0529 75.8364 12.7489C76.1124 13.4329 76.4964 14.0329 76.9884 14.5489C77.4804 15.0529 78.0624 15.4489 78.7344 15.7369C79.4064 16.0249 80.1444 16.1689 80.9484 16.1689ZM96.8046 17.8249C95.6766 17.8249 94.6746 17.6149 93.7986 17.1949C92.9346 16.7629 92.2566 16.1749 91.7646 15.4309C91.2726 14.6749 91.0266 13.8169 91.0266 12.8569V4.32486C91.0266 4.08486 91.1046 3.88687 91.2606 3.73086C91.4286 3.56286 91.6326 3.47886 91.8726 3.47886C92.1246 3.47886 92.3286 3.56286 92.4846 3.73086C92.6406 3.88687 92.7186 4.08486 92.7186 4.32486V12.8569C92.7186 13.5289 92.8926 14.1229 93.2406 14.6389C93.5886 15.1429 94.0686 15.5449 94.6806 15.8449C95.3046 16.1329 96.0126 16.2769 96.8046 16.2769C97.5726 16.2769 98.2566 16.1329 98.8566 15.8449C99.4566 15.5449 99.9246 15.1429 100.261 14.6389C100.609 14.1229 100.783 13.5289 100.783 12.8569V4.32486C100.783 4.08486 100.861 3.88687 101.017 3.73086C101.185 3.56286 101.389 3.47886 101.629 3.47886C101.881 3.47886 102.079 3.56286 102.223 3.73086C102.379 3.88687 102.457 4.08486 102.457 4.32486V12.8569C102.457 13.8169 102.217 14.6749 101.737 15.4309C101.257 16.1749 100.591 16.7629 99.7386 17.1949C98.8866 17.6149 97.9086 17.8249 96.8046 17.8249ZM106.902 17.5369C106.662 17.5369 106.458 17.4589 106.29 17.3029C106.134 17.1349 106.056 16.9309 106.056 16.6909V4.32486C106.056 4.07286 106.134 3.86886 106.29 3.71287C106.458 3.55686 106.662 3.47886 106.902 3.47886H110.196C111.084 3.47886 111.87 3.66486 112.554 4.03686C113.25 4.40886 113.79 4.92486 114.174 5.58486C114.57 6.24486 114.768 7.00686 114.768 7.87087C114.768 8.68687 114.57 9.41287 114.174 10.0489C113.79 10.6849 113.25 11.1829 112.554 11.5429C111.87 11.9029 111.084 12.0829 110.196 12.0829H107.748V16.6909C107.748 16.9309 107.67 17.1349 107.514 17.3029C107.358 17.4589 107.154 17.5369 106.902 17.5369ZM114.39 17.5369C114.234 17.5369 114.096 17.5069 113.976 17.4469C113.856 17.3749 113.748 17.2669 113.652 17.1229L110.34 11.7949L111.996 11.3269L115.056 16.2409C115.26 16.5649 115.29 16.8649 115.146 17.1409C115.002 17.4049 114.75 17.5369 114.39 17.5369ZM107.748 10.4989H110.196C110.772 10.4989 111.276 10.3909 111.708 10.1749C112.152 9.94686 112.5 9.63486 112.752 9.23886C113.004 8.83086 113.13 8.37486 113.13 7.87087C113.13 7.31887 113.004 6.83286 112.752 6.41286C112.5 5.98086 112.152 5.65086 111.708 5.42286C111.276 5.18286 110.772 5.06286 110.196 5.06286H107.748V10.4989ZM123.641 17.7169C122.669 17.7169 121.757 17.5369 120.905 17.1769C120.065 16.8049 119.327 16.2889 118.691 15.6289C118.067 14.9689 117.575 14.2009 117.215 13.3249C116.855 12.4489 116.675 11.5069 116.675 10.4989C116.675 9.50286 116.849 8.57286 117.197 7.70887C117.557 6.83286 118.055 6.06486 118.691 5.40486C119.327 4.74486 120.065 4.22886 120.905 3.85686C121.745 3.48486 122.657 3.29887 123.641 3.29887C124.541 3.29887 125.333 3.42486 126.017 3.67686C126.701 3.91686 127.379 4.31286 128.051 4.86486C128.147 4.93686 128.213 5.02086 128.249 5.11686C128.297 5.20086 128.315 5.29086 128.303 5.38687C128.303 5.47086 128.285 5.55486 128.249 5.63886C128.237 5.81886 128.159 5.96286 128.015 6.07086C127.883 6.17886 127.721 6.23886 127.529 6.25086C127.349 6.25086 127.169 6.18486 126.989 6.05287C126.533 5.65687 126.053 5.35687 125.549 5.15286C125.045 4.94886 124.409 4.84686 123.641 4.84686C122.909 4.84686 122.219 4.99686 121.571 5.29687C120.935 5.59686 120.371 6.00486 119.879 6.52086C119.387 7.03686 119.003 7.63687 118.727 8.32086C118.451 9.00486 118.313 9.73086 118.313 10.4989C118.313 11.2909 118.451 12.0289 118.727 12.7129C119.003 13.3849 119.387 13.9849 119.879 14.5129C120.371 15.0289 120.935 15.4309 121.571 15.7189C122.219 16.0069 122.909 16.1509 123.641 16.1509C124.277 16.1509 124.877 16.0489 125.441 15.8449C126.005 15.6289 126.539 15.3289 127.043 14.9449C127.235 14.8009 127.427 14.7409 127.619 14.7649C127.811 14.7769 127.973 14.8549 128.105 14.9989C128.237 15.1309 128.303 15.3169 128.303 15.5569C128.303 15.6649 128.285 15.7729 128.249 15.8809C128.213 15.9769 128.147 16.0669 128.051 16.1509C127.427 16.6909 126.737 17.0869 125.981 17.3389C125.237 17.5909 124.457 17.7169 123.641 17.7169ZM132.126 17.5369C131.886 17.5369 131.682 17.4589 131.514 17.3029C131.358 17.1349 131.28 16.9309 131.28 16.6909V4.32486C131.28 4.07286 131.358 3.86886 131.514 3.71287C131.682 3.55686 131.886 3.47886 132.126 3.47886H140.388C140.628 3.47886 140.826 3.55686 140.982 3.71287C141.138 3.85686 141.216 4.04886 141.216 4.28886C141.216 4.50486 141.138 4.69086 140.982 4.84686C140.826 4.99086 140.628 5.06286 140.388 5.06286H132.972V9.67087H138.318C138.57 9.67087 138.768 9.74887 138.912 9.90486C139.068 10.0489 139.146 10.2349 139.146 10.4629C139.146 10.6909 139.068 10.8829 138.912 11.0389C138.768 11.1829 138.57 11.2549 138.318 11.2549H132.972V15.9529H140.388C140.628 15.9529 140.826 16.0309 140.982 16.1869C141.138 16.3309 141.216 16.5109 141.216 16.7269C141.216 16.9669 141.138 17.1649 140.982 17.3209C140.826 17.4649 140.628 17.5369 140.388 17.5369H132.126ZM149.465 13.2169C149.309 13.2169 149.177 13.1689 149.069 13.0729C148.973 12.9649 148.925 12.8329 148.925 12.6769V4.01886C148.925 3.85086 148.973 3.71886 149.069 3.62286C149.177 3.52686 149.309 3.47886 149.465 3.47886C149.633 3.47886 149.765 3.52686 149.861 3.62286C149.957 3.71886 150.005 3.85086 150.005 4.01886V12.6769C150.005 12.8329 149.957 12.9649 149.861 13.0729C149.765 13.1689 149.633 13.2169 149.465 13.2169ZM157.439 17.5369C157.283 17.5369 157.151 17.4889 157.043 17.3929C156.947 17.2849 156.899 17.1529 156.899 16.9969V12.1549C156.899 11.3629 156.743 10.7089 156.431 10.1929C156.131 9.67686 155.717 9.29286 155.189 9.04086C154.673 8.77686 154.085 8.64486 153.425 8.64486C152.777 8.64486 152.195 8.77086 151.679 9.02286C151.163 9.26287 150.755 9.59886 150.455 10.0309C150.155 10.4629 150.005 10.9489 150.005 11.4889H149.105C149.153 10.7449 149.375 10.0789 149.771 9.49086C150.167 8.89086 150.683 8.42286 151.319 8.08686C151.955 7.73886 152.657 7.56486 153.425 7.56486C154.289 7.56486 155.063 7.74486 155.747 8.10486C156.443 8.45286 156.989 8.96886 157.385 9.65286C157.781 10.3249 157.979 11.1589 157.979 12.1549V16.9969C157.979 17.1529 157.925 17.2849 157.817 17.3929C157.721 17.4889 157.595 17.5369 157.439 17.5369ZM149.465 17.5369C149.309 17.5369 149.177 17.4889 149.069 17.3929C148.973 17.2849 148.925 17.1529 148.925 16.9969V8.23086C148.925 8.06286 148.973 7.93086 149.069 7.83486C149.177 7.73886 149.309 7.69086 149.465 7.69086C149.633 7.69086 149.765 7.73886 149.861 7.83486C149.957 7.93086 150.005 8.06286 150.005 8.23086V16.9969C150.005 17.1529 149.957 17.2849 149.861 17.3929C149.765 17.4889 149.633 17.5369 149.465 17.5369ZM165.41 17.6629C164.546 17.6629 163.772 17.4889 163.088 17.1409C162.404 16.7809 161.858 16.2589 161.45 15.5749C161.054 14.8909 160.856 14.0569 160.856 13.0729V8.23086C160.856 8.07486 160.904 7.94886 161 7.85286C161.108 7.74486 161.24 7.69086 161.396 7.69086C161.552 7.69086 161.678 7.74486 161.774 7.85286C161.882 7.94886 161.936 8.07486 161.936 8.23086V13.0729C161.936 13.8529 162.086 14.5069 162.386 15.0349C162.698 15.5509 163.112 15.9409 163.628 16.2049C164.156 16.4569 164.75 16.5829 165.41 16.5829C166.058 16.5829 166.64 16.4569 167.156 16.2049C167.672 15.9529 168.08 15.6169 168.38 15.1969C168.68 14.7649 168.83 14.2789 168.83 13.7389H169.73C169.682 14.4829 169.46 15.1549 169.064 15.7549C168.668 16.3429 168.152 16.8109 167.516 17.1589C166.892 17.4949 166.19 17.6629 165.41 17.6629ZM169.37 17.5369C169.214 17.5369 169.082 17.4889 168.974 17.3929C168.878 17.2849 168.83 17.1529 168.83 16.9969V8.23086C168.83 8.06286 168.878 7.93086 168.974 7.83486C169.082 7.73886 169.214 7.69086 169.37 7.69086C169.538 7.69086 169.67 7.73886 169.766 7.83486C169.862 7.93086 169.91 8.06286 169.91 8.23086V16.9969C169.91 17.1529 169.862 17.2849 169.766 17.3929C169.67 17.4889 169.538 17.5369 169.37 17.5369ZM178.169 17.6449C177.233 17.6449 176.387 17.4289 175.631 16.9969C174.875 16.5649 174.275 15.9769 173.831 15.2329C173.399 14.4889 173.171 13.6489 173.147 12.7129V4.01886C173.147 3.85086 173.195 3.71886 173.291 3.62286C173.399 3.52686 173.531 3.47886 173.687 3.47886C173.855 3.47886 173.987 3.52686 174.083 3.62286C174.179 3.71886 174.227 3.85086 174.227 4.01886V9.63487C174.611 9.01086 175.145 8.51286 175.829 8.14086C176.525 7.76886 177.305 7.58286 178.169 7.58286C179.129 7.58286 179.987 7.80486 180.743 8.24886C181.511 8.68086 182.111 9.27486 182.543 10.0309C182.987 10.7869 183.209 11.6449 183.209 12.6049C183.209 13.5649 182.987 14.4289 182.543 15.1969C182.111 15.9529 181.511 16.5529 180.743 16.9969C179.987 17.4289 179.129 17.6449 178.169 17.6449ZM178.169 16.6369C178.925 16.6369 179.597 16.4629 180.185 16.1149C180.785 15.7549 181.259 15.2749 181.607 14.6749C181.955 14.0629 182.129 13.3729 182.129 12.6049C182.129 11.8369 181.955 11.1529 181.607 10.5529C181.259 9.95286 180.785 9.47886 180.185 9.13087C179.597 8.77087 178.925 8.59087 178.169 8.59087C177.425 8.59087 176.753 8.77087 176.153 9.13087C175.553 9.47886 175.079 9.95286 174.731 10.5529C174.395 11.1529 174.227 11.8369 174.227 12.6049C174.227 13.3729 174.395 14.0629 174.731 14.6749C175.079 15.2749 175.553 15.7549 176.153 16.1149C176.753 16.4629 177.425 16.6369 178.169 16.6369Z" fill="white"/>
<path fill-rule="evenodd" clip-rule="evenodd" d="M202.521 3.8702C202.521 4.53754 201.982 5.07853 201.318 5.07853C200.654 5.07853 200.115 4.53754 200.115 3.8702C200.115 3.20285 200.654 2.66187 201.318 2.66187C201.982 2.66187 202.521 3.20285 202.521 3.8702ZM204.636 3.8702C204.636 5.33067 203.701 6.57178 202.4 7.02239C202.3 7.05675 202.23 7.1486 202.23 7.25406V13.8196C202.23 13.9251 202.3 14.017 202.4 14.0513C202.602 14.1212 202.795 14.2102 202.977 14.3161C203.061 14.3649 203.166 14.3628 203.244 14.3059L205.999 12.3091C206.089 12.2434 206.121 12.1231 206.079 12.019C205.862 11.4751 205.742 10.8812 205.742 10.259C205.742 7.65107 207.846 5.53685 210.442 5.53685C213.038 5.53685 215.143 7.65107 215.143 10.259C215.143 12.867 213.038 14.9813 210.442 14.9813C209.364 14.9813 208.37 14.6165 207.577 14.0029C207.492 13.9373 207.374 13.9325 207.287 13.9956L204.58 15.9576C204.495 16.0195 204.462 16.1304 204.493 16.2315C204.586 16.539 204.636 16.8653 204.636 17.2035C204.636 19.0445 203.15 20.5369 201.318 20.5369C199.485 20.5369 198 19.0445 198 17.2035C198 15.846 198.808 14.678 199.967 14.1581C200.055 14.1185 200.115 14.0318 200.115 13.9345V7.13925C200.115 7.04189 200.055 6.95523 199.967 6.91554C198.808 6.39575 198 5.22775 198 3.8702C198 2.02925 199.485 0.536865 201.318 0.536865C203.15 0.536865 204.636 2.02925 204.636 3.8702ZM210.442 12.8562C211.87 12.8562 213.027 11.6935 213.027 10.259C213.027 8.82467 211.87 7.66186 210.442 7.66186C209.015 7.66186 207.857 8.82467 207.857 10.259C207.857 11.6935 209.015 12.8562 210.442 12.8562Z" fill="white"/>
</svg>
