<svg width="250" height="43" viewBox="0 0 250 43" fill="none" xmlns="http://www.w3.org/2000/svg">
<path d="M2.1491 42.7473C1.53106 42.7473 1.01134 42.5367 0.58995 42.1156C0.19665 41.7225 0 41.2171 0 40.5994V21.3947C0.0280929 19.1766 0.547811 17.1832 1.55915 15.4143C2.5705 13.6454 3.94704 12.2556 5.6888 11.2449C7.43056 10.206 9.39706 9.68658 11.5883 9.68658C13.8076 9.68658 15.7882 10.206 17.5299 11.2449C19.2717 12.2556 20.6482 13.6454 21.6596 15.4143C22.699 17.1832 23.2187 19.1766 23.2187 21.3947C23.2187 23.6128 22.7412 25.6063 21.786 27.3751C20.8589 29.1159 19.5807 30.5057 17.9513 31.5446C16.3219 32.5553 14.4819 33.0607 12.4311 33.0607C10.7736 33.0607 9.24255 32.7238 7.8379 32.0499C6.46136 31.348 5.28145 30.4074 4.29821 29.2282V40.5994C4.29821 41.2171 4.10156 41.7225 3.70826 42.1156C3.31496 42.5367 2.79524 42.7473 2.1491 42.7473ZM11.5883 29.2703C13.021 29.2703 14.2993 28.9334 15.423 28.2595C16.5467 27.5576 17.4316 26.617 18.0777 25.4378C18.752 24.2305 19.0891 22.8828 19.0891 21.3947C19.0891 19.8785 18.752 18.5309 18.0777 17.3516C17.4316 16.1443 16.5467 15.2037 15.423 14.5299C14.2993 13.8279 13.021 13.477 11.5883 13.477C10.1837 13.477 8.90543 13.8279 7.75363 14.5299C6.62991 15.2037 5.74499 16.1443 5.09885 17.3516C4.45272 18.5309 4.12965 19.8785 4.12965 21.3947C4.12965 22.8828 4.45272 24.2305 5.09885 25.4378C5.74499 26.617 6.62991 27.5576 7.75363 28.2595C8.90543 28.9334 10.1837 29.2703 11.5883 29.2703Z" fill="white"/>
<path d="M40.5011 33.0607C38.2256 33.0607 36.2169 32.5694 34.4752 31.5867C32.7334 30.5759 31.3569 29.2001 30.3455 27.4594C29.3623 25.6905 28.8707 23.669 28.8707 21.3947C28.8707 19.0924 29.3623 17.0708 30.3455 15.3301C31.3569 13.5612 32.7334 12.1854 34.4752 11.2027C36.2169 10.192 38.2256 9.68658 40.5011 9.68658C42.7485 9.68658 44.7431 10.192 46.4849 11.2027C48.2266 12.1854 49.5891 13.5612 50.5724 15.3301C51.5837 17.0708 52.0894 19.0924 52.0894 21.3947C52.0894 23.669 51.5978 25.6905 50.6145 27.4594C49.6313 29.2001 48.2688 30.5759 46.527 31.5867C44.7853 32.5694 42.7766 33.0607 40.5011 33.0607ZM40.5011 29.2703C41.9619 29.2703 43.2542 28.9334 44.3779 28.2595C45.5016 27.5857 46.3725 26.6592 46.9905 25.4799C47.6367 24.3007 47.9598 22.9389 47.9598 21.3947C47.9598 19.8505 47.6367 18.4887 46.9905 17.3095C46.3725 16.1022 45.5016 15.1616 44.3779 14.4878C43.2542 13.8139 41.9619 13.477 40.5011 13.477C39.0403 13.477 37.748 13.8139 36.6243 14.4878C35.5006 15.1616 34.6157 16.1022 33.9695 17.3095C33.3234 18.4887 33.0003 19.8505 33.0003 21.3947C33.0003 22.9389 33.3234 24.3007 33.9695 25.4799C34.6157 26.6592 35.5006 27.5857 36.6243 28.2595C37.748 28.9334 39.0403 29.2703 40.5011 29.2703Z" fill="white"/>
<path d="M62.9416 32.8923C62.4921 32.8923 62.0707 32.7659 61.6774 32.5132C61.3122 32.2325 61.0594 31.8955 60.9189 31.5024L54.6823 12.8031C54.4575 11.9327 54.4575 11.2308 54.6823 10.6974C54.9351 10.1358 55.4689 9.85504 56.2836 9.85504C56.8173 9.85504 57.2528 10.0095 57.5899 10.3183C57.9551 10.5991 58.2501 11.0904 58.4748 11.7924L63.7844 28.3859H62.3095L67.3241 11.4554C67.4645 10.9781 67.7033 10.5991 68.0404 10.3183C68.3775 10.0095 68.8411 9.85504 69.431 9.85504C69.9929 9.85504 70.4424 10.0095 70.7795 10.3183C71.1447 10.5991 71.3835 10.9781 71.4958 11.4554L75.5834 27.3751H74.9513L79.9237 11.7924C80.317 10.5008 81.0474 9.85504 82.1149 9.85504C82.9015 9.85504 83.4353 10.1358 83.7162 10.6974C83.9972 11.2308 83.9831 11.9327 83.6741 12.8031L77.4375 31.5024C77.3251 31.8955 77.0863 32.2325 76.7211 32.5132C76.3559 32.7659 75.9345 32.8923 75.4569 32.8923C75.0075 32.8923 74.5861 32.7659 74.1928 32.5132C73.7995 32.2325 73.5466 31.8955 73.4343 31.5024L69.0939 15.4564H69.5153L64.9643 31.5024C64.8519 31.8955 64.5991 32.2325 64.2058 32.5132C63.8405 32.7659 63.4192 32.8923 62.9416 32.8923Z" fill="white"/>
<path d="M98.7181 33.0607C96.3864 33.0607 94.3076 32.5694 92.4815 31.5867C90.6836 30.5759 89.2649 29.2001 88.2255 27.4594C87.2141 25.6905 86.7085 23.669 86.7085 21.3947C86.7085 19.0924 87.186 17.0708 88.1412 15.3301C89.1244 13.5612 90.4729 12.1854 92.1866 11.2027C93.9002 10.192 95.8667 9.68658 98.0861 9.68658C100.277 9.68658 102.16 10.1779 103.733 11.1606C105.306 12.1152 106.5 13.4489 107.315 15.1616C108.157 16.8462 108.579 18.7976 108.579 21.0157C108.579 21.5491 108.396 21.9984 108.031 22.3634C107.666 22.7003 107.202 22.8688 106.64 22.8688H89.6582V19.4995H106.514L104.786 20.6787C104.758 19.2749 104.477 18.0255 103.943 16.9305C103.41 15.8074 102.651 14.923 101.668 14.2772C100.685 13.6314 99.4907 13.3085 98.0861 13.3085C96.4848 13.3085 95.1082 13.6595 93.9564 14.3614C92.8327 15.0633 91.9759 16.032 91.3859 17.2674C90.796 18.4747 90.501 19.8505 90.501 21.3947C90.501 22.9389 90.8522 24.3147 91.5545 25.522C92.2568 26.7294 93.226 27.684 94.4621 28.3859C95.6982 29.0878 97.1169 29.4388 98.7181 29.4388C99.589 29.4388 100.474 29.2844 101.373 28.9755C102.3 28.6386 103.044 28.2595 103.606 27.8384C104.028 27.5295 104.477 27.3751 104.955 27.3751C105.46 27.347 105.896 27.4874 106.261 27.7963C106.739 28.2174 106.991 28.6807 107.02 29.1861C107.048 29.6915 106.823 30.1267 106.345 30.4917C105.39 31.2498 104.196 31.8675 102.764 32.3448C101.359 32.8221 100.01 33.0607 98.7181 33.0607Z" fill="white"/>
<path d="M116.547 18.4887C116.547 16.8041 116.954 15.302 117.769 13.9824C118.612 12.6347 119.736 11.5677 121.14 10.7816C122.545 9.99543 124.09 9.60235 125.776 9.60235C127.461 9.60235 128.711 9.88312 129.526 10.4447C130.369 10.9781 130.692 11.6239 130.495 12.382C130.411 12.7751 130.242 13.0839 129.989 13.3085C129.765 13.5051 129.498 13.6314 129.189 13.6876C128.88 13.7437 128.543 13.7297 128.177 13.6454C126.38 13.2804 124.764 13.2524 123.331 13.5612C121.899 13.8701 120.761 14.4456 119.918 15.288C119.103 16.1303 118.696 17.1972 118.696 18.4887H116.547ZM116.589 32.8923C115.915 32.8923 115.395 32.7238 115.03 32.3869C114.665 32.0219 114.482 31.4884 114.482 30.7865V11.9608C114.482 11.287 114.665 10.7675 115.03 10.4025C115.395 10.0375 115.915 9.85504 116.589 9.85504C117.291 9.85504 117.811 10.0375 118.148 10.4025C118.513 10.7395 118.696 11.2589 118.696 11.9608V30.7865C118.696 31.4603 118.513 31.9798 118.148 32.3448C117.811 32.7098 117.291 32.8923 116.589 32.8923Z" fill="white"/>
<path d="M144.54 33.0607C142.208 33.0607 140.129 32.5694 138.303 31.5867C136.505 30.5759 135.086 29.2001 134.047 27.4594C133.036 25.6905 132.53 23.669 132.53 21.3947C132.53 19.0924 133.008 17.0708 133.963 15.3301C134.946 13.5612 136.294 12.1854 138.008 11.2027C139.722 10.192 141.688 9.68658 143.908 9.68658C146.099 9.68658 147.981 10.1779 149.554 11.1606C151.127 12.1152 152.321 13.4489 153.136 15.1616C153.979 16.8462 154.4 18.7976 154.4 21.0157C154.4 21.5491 154.218 21.9984 153.852 22.3634C153.487 22.7003 153.024 22.8688 152.462 22.8688H135.48V19.4995H152.335L150.608 20.6787C150.58 19.2749 150.299 18.0255 149.765 16.9305C149.231 15.8074 148.473 14.923 147.489 14.2772C146.506 13.6314 145.312 13.3085 143.908 13.3085C142.306 13.3085 140.93 13.6595 139.778 14.3614C138.654 15.0633 137.797 16.032 137.207 17.2674C136.617 18.4747 136.322 19.8505 136.322 21.3947C136.322 22.9389 136.674 24.3147 137.376 25.522C138.078 26.7294 139.048 27.684 140.284 28.3859C141.52 29.0878 142.938 29.4388 144.54 29.4388C145.411 29.4388 146.295 29.2844 147.194 28.9755C148.121 28.6386 148.866 28.2595 149.428 27.8384C149.849 27.5295 150.299 27.3751 150.776 27.3751C151.282 27.347 151.717 27.4874 152.083 27.7963C152.56 28.2174 152.813 28.6807 152.841 29.1861C152.869 29.6915 152.644 30.1267 152.167 30.4917C151.212 31.2498 150.018 31.8675 148.585 32.3448C147.18 32.8221 145.832 33.0607 144.54 33.0607Z" fill="white"/>
<path d="M169.931 33.0607C167.74 33.0607 165.759 32.5553 163.99 31.5446C162.248 30.5057 160.857 29.1019 159.818 27.333C158.806 25.5642 158.301 23.5707 158.301 21.3526C158.301 19.1345 158.764 17.1551 159.691 15.4143C160.647 13.6454 161.939 12.2556 163.568 11.2449C165.198 10.206 167.038 9.68658 169.088 9.68658C170.746 9.68658 172.277 10.0375 173.682 10.7395C175.086 11.4133 176.266 12.3399 177.221 13.5191V2.14789C177.221 1.50212 177.418 0.982697 177.811 0.589618C178.233 0.196539 178.752 0 179.37 0C180.017 0 180.536 0.196539 180.93 0.589618C181.323 0.982697 181.52 1.50212 181.52 2.14789V21.3526C181.52 23.5707 181 25.5642 179.96 27.333C178.949 29.1019 177.572 30.5057 175.831 31.5446C174.089 32.5553 172.122 33.0607 169.931 33.0607ZM169.931 29.2703C171.364 29.2703 172.642 28.9334 173.766 28.2595C174.89 27.5576 175.775 26.603 176.421 25.3957C177.067 24.1884 177.39 22.8407 177.39 21.3526C177.39 19.8364 177.067 18.4887 176.421 17.3095C175.775 16.1303 174.89 15.2037 173.766 14.5299C172.642 13.8279 171.364 13.477 169.931 13.477C168.527 13.477 167.248 13.8279 166.097 14.5299C164.973 15.2037 164.074 16.1303 163.4 17.3095C162.753 18.4887 162.43 19.8364 162.43 21.3526C162.43 22.8407 162.753 24.1884 163.4 25.3957C164.074 26.603 164.973 27.5576 166.097 28.2595C167.248 28.9334 168.527 29.2703 169.931 29.2703Z" fill="white"/>
<path d="M213.886 33.0607C211.695 33.0607 209.729 32.5553 207.987 31.5446C206.245 30.5057 204.869 29.1019 203.857 27.333C202.846 25.5642 202.326 23.5707 202.298 21.3526V2.14789C202.298 1.50212 202.495 0.982697 202.888 0.589618C203.309 0.196539 203.829 0 204.447 0C205.093 0 205.613 0.196539 206.006 0.589618C206.4 0.982697 206.596 1.50212 206.596 2.14789V13.5191C207.58 12.3399 208.759 11.4133 210.136 10.7395C211.541 10.0375 213.072 9.68658 214.729 9.68658C216.78 9.68658 218.62 10.206 220.249 11.2449C221.879 12.2556 223.157 13.6454 224.084 15.4143C225.039 17.1551 225.517 19.1345 225.517 21.3526C225.517 23.5707 224.997 25.5642 223.958 27.333C222.946 29.1019 221.57 30.5057 219.828 31.5446C218.086 32.5553 216.106 33.0607 213.886 33.0607ZM213.886 29.2703C215.319 29.2703 216.597 28.9334 217.721 28.2595C218.845 27.5576 219.73 26.603 220.376 25.3957C221.05 24.1884 221.387 22.8407 221.387 21.3526C221.387 19.8364 221.05 18.4887 220.376 17.3095C219.73 16.1303 218.845 15.2037 217.721 14.5299C216.597 13.8279 215.319 13.477 213.886 13.477C212.482 13.477 211.204 13.8279 210.052 14.5299C208.928 15.2037 208.043 16.1303 207.397 17.3095C206.751 18.4887 206.428 19.8364 206.428 21.3526C206.428 22.8407 206.751 24.1884 207.397 25.3957C208.043 26.603 208.928 27.5576 210.052 28.2595C211.204 28.9334 212.482 29.2703 213.886 29.2703Z" fill="white"/>
<path d="M235.203 43C234.922 43 234.585 42.9158 234.191 42.7473C232.955 42.1858 232.618 41.3013 233.18 40.094L246.032 11.0764C246.594 9.89716 247.479 9.56023 248.687 10.0656C249.951 10.5991 250.303 11.4835 249.741 12.7189L236.846 41.6944C236.509 42.5648 235.961 43 235.203 43ZM240.175 31.9657C239.641 32.1903 239.136 32.2184 238.658 32.0499C238.209 31.8534 237.843 31.4884 237.562 30.9549L227.913 12.6347C227.632 12.1012 227.589 11.5958 227.786 11.1185C228.011 10.6131 228.39 10.2481 228.924 10.0235C229.458 9.79889 229.963 9.78485 230.441 9.98139C230.918 10.1499 231.284 10.5008 231.537 11.0343L240.765 29.3546C241.046 29.888 241.144 30.4074 241.06 30.9128C241.004 31.3901 240.709 31.7411 240.175 31.9657Z" fill="white"/>
</svg>
